<svg xmlns="http://www.w3.org/2000/svg" width="18" height="18" viewBox="0 0 18 18"><g fill="currentColor"><path d="M13.5 2h-9A2.503 2.503 0 0 0 2 4.5v9C2 14.879 3.121 16 4.5 16h9c1.379 0 2.5-1.121 2.5-2.5v-9C16 3.122 14.879 2 13.5 2M3 13.5v-9C3 3.673 3.673 3 4.5 3H6v12H4.5c-.827 0-1.5-.673-1.5-1.5m12 0c0 .827-.673 1.5-1.5 1.5H7V3h6.5c.827 0 1.5.673 1.5 1.5z"/><path d="M8.5 5h3a.5.5 0 0 0 0-1h-3a.5.5 0 0 0 0 1m5 1h-3a.5.5 0 0 0 0 1h3a.5.5 0 0 0 0-1m-2 6h-3a.5.5 0 0 0 0 1h3a.5.5 0 0 0 0-1m2-4h-3a.5.5 0 0 0 0 1h3a.5.5 0 0 0 0-1m0 2h-3a.5.5 0 0 0 0 1h3a.5.5 0 0 0 0-1"/></g></svg>